/* XPM */
static char *c6666a07923f4fc487af0e47046345eaFgwKLQttfTdGKBrC[] = {
/* columns rows colors chars-per-pixel */
"32 32 13 1 ",
"  c None",
". c #1C121C",
"X c #C7CFDD",
"o c #92A1B9",
"O c #657392",
"+ c #8A4836",
"@ c #391F21",
"# c #BF6F4A",
"$ c #5D2C28",
"% c #F9E6CF",
"& c #FFC825",
"* c #FFA214",
"= c white",
/* pixels */
"            ........            ",
"         ...XXXXXXXX...         ",
"       ..XXXooooooooXXX..       ",
"     ..XXooooooooooooooXX..     ",
"    .XXoooooOOOOOOOOoooooXX.    ",
"   .XoooooOO........OOoooooo.   ",
"  .XooooOO..+++@++++..OOooooo.  ",
" .XooooO..@+###$####@+..Oooooo. ",
" .XoooO.++$####$####$#++.Ooooo. ",
".XoooO.+##$####$####$####.OoooO.",
".XooO.+###$#%%%%%%%%$####$.XooO.",
".XooO.+###$%&&&&&&&&*####$.XooO.",
".XooO.+###%&&******&&*###$.XooO.",
".XooO.+##%&&*......&&&*##$.XooO.",
".XooO.+#%&&*........&&&*+$.XooO.",
".XooO.+#%&*..........%&*+$.XooO.",
".XooO.+#%&*..........%&*+$.XooO.",
".XooO.+#%&*..........%&*+$.XooO.",
".XooO.+#%&&&........%&&*+$.XooO.",
".XooO.+#+&&&&......%&&*+#$.XooO.",
".XooO.+##+&&&&....%&&*+##$.XooO.",
".XooO.+###@%&&....%&*+###$.XooO.",
".XooO.+###$%&&....%&*+###$.XooO.",
".XooO.+###$%&&....%&*+###$.XooO.",
".XooO.+###$%&&....%&*+###$.XooO.",
".XooO.+###$%&&....%&*+###$.XooO.",
".XooO.+###$%&&%%%%&&*+###$.XooO.",
".XooO.+###$*&&&&&&&&*+###$.XooO.",
".XooO.+###$**********+###$.XooO.",
".XooO.+###$++++@++++@####$.XooO.",
".XooO.+###$####$####$####$.XooO.",
".XooO.+###$####$####$####$.XooO."
};
