/* XPM */
static char *_c2c18ad9e8b443ca50196ba63cfba854DqnIvcSp0B5fcvj[] = {
/* columns rows colors chars-per-pixel */
"32 32 20 1 ",
"  c None",
". c #121724",
"X c #E8C170",
"o c #DE9E41",
"O c #BE772B",
"+ c #C1C12B",
"@ c yellow",
"# c #FFC190",
"$ c #884B2B",
"% c #F4A481",
"& c #663920",
"* c #CF573C",
"= c #F6F0F0",
"- c #A53030",
"; c #468232",
": c #25562E",
"> c #819796",
", c #577277",
"< c #394A50",
"1 c white",
/* pixels */
"                                ",
"             ......             ",
"           ...XXXo...           ",
"         ..oO......Oo..         ",
"        .ooXO.+@@+.OooO.        ",
"       .oXXo.@+@@+@.OooO.       ",
"      .oXooO.@+@@+@.OooOO.      ",
"      .oXoOO.@+@@+@.OOoOO.      ",
"     .oXoOO...+@@+...OOOOO.     ",
"     .oXO..XXo....Ooo..OOO.     ",
"     .o..XoOOOOOOOOOOoo..O.     ",
"     ..XoOO..........OOoo..     ",
"     .oOO..##########..OOo.     ",
"    .oO.....########.....Oo.    ",
"   .oO.$###############%&.OO.   ",
"   ..#.$##..###**###..#%&.%..   ",
"    .#.$#.##.##**##.##.%&.%.    ",
"    .#.$#######**######%&.%.    ",
"     ..$$####$$**$$####&&..     ",
"       ..$$$$$====$$$$&..       ",
"      .##.$$$$.--.$$&&.##.      ",
"      .#%;...$$$$$$...;#%.      ",
"       .:;;;;>;;;;,:;;;:.       ",
"        .:::>o>;;>o>:::.        ",
"         ...>>>>>>>>...         ",
"           .>><<<<>,.           ",
"           .>>>>>>>,.           ",
"           .>>>>>>,,.           ",
"           .>>,..,,,.           ",
"           .>,.  .>,.           ",
"           .>,.  .>,.           ",
"           .$&.  .$&.           "
};
