/* XPM */
static char *_a2f48be7b4442fdaf9dbeb317a1b9d47a5tKEDm0XLyerJI[] = {
/* columns rows colors chars-per-pixel */
"32 32 6 1 ",
"  c None",
". c #1C121C",
"X c #F9E6CF",
"o c #FFA214",
"O c #FFC825",
"+ c white",
/* pixels */
"                                ",
"                                ",
"                                ",
"                                ",
"                                ",
"                                ",
"                                ",
"                                ",
"                                ",
"                                ",
"          ...                   ",
"       ...XXX...    .. ..       ",
"      .XXXoooXXX.  .XX.XX.      ",
"      .XOO...OOo.  .XO.XO.      ",
"     .XOo.   .Xo....XOooO.      ",
"     .XOo.   .XOOXXXXOOOOX.     ",
"     .XOo.   .XOoooooooooo.     ",
"     .XOo.   .Xo..........      ",
"      .XOo...XOo.               ",
"      .oooOOOooo.               ",
"       ...ooo...                ",
"          ...                   ",
"                                ",
"                                ",
"                                ",
"                                ",
"                                ",
"                                ",
"                                ",
"                                ",
"                                ",
"                                "
};
