/* XPM */
static char *be79c97dd2bf4da9fda43deab3e77565inlb6gQJrXkYKMHR[] = {
/* columns rows colors chars-per-pixel */
"32 32 6 1 ",
"  c #97C797",
". c #93C596",
"X c #9ECB98",
"o c #9FCC98",
"O c #96C797",
"+ c white",
/* pixels */
" .............................. ",
"X ............................ X",
"oX .......................... Xo",
"ooX ........................ Xoo",
"oooX ...................... Xooo",
"ooooX .................... Xoooo",
"oooooX .................. Xooooo",
"ooooooX ................ Xoooooo",
"oooooooX .............. Xooooooo",
"ooooooooX ............ Xoooooooo",
"oooooooooX .......... Xooooooooo",
"ooooooooooX ........ Xoooooooooo",
"oooooooooooX ...... Xooooooooooo",
"ooooooooooooX .... Xoooooooooooo",
"oooooooooooooX .. Xooooooooooooo",
"ooooooooooooooXOOXoooooooooooooo",
"ooooooooooooooXOOXoooooooooooooo",
"oooooooooooooX .. Xooooooooooooo",
"ooooooooooooX .... Xoooooooooooo",
"oooooooooooX ...... Xooooooooooo",
"ooooooooooX ........ Xoooooooooo",
"oooooooooX .......... Xooooooooo",
"ooooooooX ............ Xoooooooo",
"oooooooX .............. Xooooooo",
"ooooooX ................ Xoooooo",
"oooooX .................. Xooooo",
"ooooX .................... Xoooo",
"oooX ...................... Xooo",
"ooX ........................ Xoo",
"oX .......................... Xo",
"X ............................ X",
" .............................. "
};
